<svg width="65" height="67" viewBox="0 0 65 67" fill="none" xmlns="http://www.w3.org/2000/svg">
    <g clip-path="url(#clip0_84_350)">
    <path d="M57.3268 57.4164C52.3201 62.3692 45.6258 65.6831 38.5376 66.6664C37.6544 66.8053 36.7599 66.8664 35.8683 66.9414C34.9738 66.972 34.0794 67.0192 33.1849 66.9886C31.396 66.9553 29.6015 66.8025 27.8379 66.4803C26.0715 66.1664 24.3276 65.7247 22.6315 65.1331C20.9382 64.5359 19.2927 63.8136 17.7091 62.9692C11.3804 59.5803 6.18528 54.1359 3.15312 47.6581C2.97029 47.2497 2.76496 46.8525 2.60182 46.4359L2.10115 45.1914C1.80862 44.347 1.50485 43.5081 1.2742 42.6442C0.796032 40.9247 0.41631 39.1747 0.227855 37.3997C0.0337751 35.6275 -0.0506076 33.8414 0.0309623 32.0581C0.115345 30.2747 0.331927 28.4997 0.680709 26.747C2.14334 19.7497 5.93213 13.2581 11.3214 8.5053C16.7078 3.76363 23.6384 0.727521 30.8194 0.124743C32.6139 -0.0391455 34.4141 -0.0280344 36.2058 0.0775211C36.4309 0.09141 36.6559 0.0886322 36.8781 0.11641L37.5475 0.196966L38.8836 0.358077C39.3308 0.396966 39.7696 0.502521 40.2084 0.585854L41.5276 0.849743C45.0266 1.63863 48.3851 3.00808 51.4313 4.85808C57.5125 8.56919 62.3729 14.1803 64.9972 20.6886C64.6006 19.9053 64.2293 19.1136 63.813 18.3442L63.1436 17.2136C62.9186 16.8386 62.7104 16.4553 62.446 16.1025L61.7007 15.022L61.3266 14.4831L60.9159 13.972C60.3646 13.2914 59.8414 12.5914 59.2254 11.9664C56.8712 9.38308 54.109 7.17197 51.0741 5.44141C48.0475 3.69974 44.7454 2.4303 41.3251 1.73585C37.9076 1.03585 34.386 0.849743 30.9207 1.19974C29.1908 1.39141 27.475 1.7053 25.7958 2.14419C24.1166 2.58863 22.4768 3.17474 20.8904 3.87197C20.4966 4.0553 20.0944 4.21919 19.7118 4.41641L18.5558 5.00808C17.802 5.43585 17.0453 5.85808 16.3253 6.33863C14.8767 7.28308 13.49 8.32474 12.2102 9.4803C9.6534 11.7942 7.4257 14.4747 5.71836 17.4581C3.98007 20.4247 2.7734 23.6775 2.05896 27.0275C1.71862 28.7053 1.50766 30.4081 1.42046 32.1192C1.33608 33.8303 1.41203 35.547 1.59204 37.2497C1.76643 38.9553 2.12365 40.6359 2.57932 42.2886C2.79872 43.1192 3.08562 43.9247 3.36689 44.7359L3.83944 45.9331C3.99132 46.3331 4.1854 46.7192 4.35698 47.1109C5.07986 48.6664 5.91525 50.1747 6.87721 51.6053C7.8448 53.0303 8.91927 54.3831 10.095 55.647C11.2623 56.9192 12.5562 58.0775 13.9147 59.1442C15.2789 60.2081 16.7134 61.1914 18.2379 62.0247C24.2994 65.4247 31.4888 66.8109 38.4504 65.9997C40.1887 65.797 41.9214 65.4831 43.6118 65.0081C45.3023 64.5331 46.9562 63.9303 48.5538 63.2053C50.1571 62.4859 51.6929 61.6164 53.1555 60.647C54.6238 59.6775 56.0217 58.597 57.3268 57.4164Z" fill="url(#paint0_linear_84_350)"/>
    <path d="M23.1885 18.9778V47.8667L52.7224 33.4222L23.1885 18.9778Z" fill="white"/>
    </g>
    <defs>
    <linearGradient id="paint0_linear_84_350" x1="32.5004" y1="67.31" x2="32.5004" y2="-0.190005" gradientUnits="userSpaceOnUse">
    <stop offset="0.00558659" stop-color="white"/>
    <stop offset="0.9944" stop-color="#66CDF1"/>
    </linearGradient>
    <clipPath id="clip0_84_350">
    <rect width="65" height="67" fill="white"/>
    </clipPath>
    </defs>
    </svg>
    