<svg width="216" height="69" viewBox="0 0 216 69" fill="none" xmlns="http://www.w3.org/2000/svg">
    <g clip-path="url(#clip0_1119_323)">
    <path d="M77.1044 35.8707C77.1782 38.6488 76.1781 41.059 74.1062 43.0995C72.0344 45.1378 69.6059 46.1118 66.8249 46.0111C64.128 45.9618 61.8471 44.9447 59.9843 42.9597C58.1194 40.9748 57.189 38.6241 57.189 35.9077C57.189 33.0556 58.1972 30.6166 60.2138 28.5864C62.2303 26.5584 64.6301 25.5803 67.4131 25.6563C70.2576 25.7796 72.6369 26.9344 74.5489 29.1227V19.3296H77.1065V35.8707H77.1044ZM74.4731 35.6488C74.4362 33.6207 73.721 31.8782 72.3295 30.4214C70.94 28.9645 69.2432 28.2371 67.2451 28.2371C65.1978 28.2125 63.4415 28.9358 61.9762 30.4029C60.5109 31.8741 59.7732 33.633 59.7609 35.6878C59.7363 37.7405 60.4167 39.5323 61.802 41.0632C63.1874 42.5919 64.874 43.3953 66.8598 43.4693C68.9931 43.5782 70.8109 42.8406 72.3131 41.2563C73.8152 39.6679 74.5345 37.8001 74.4731 35.6488Z" fill="white"/>
    <path d="M99.7392 35.7228V35.8707V45.4769H97.239V42.4522C95.1179 44.8502 92.5317 46.0111 89.4781 45.9371C86.8058 45.8385 84.529 44.8008 82.6477 42.82C80.7644 40.8413 79.8237 38.4885 79.8237 35.7597C79.8237 32.92 80.832 30.483 82.8506 28.4488C84.8651 26.4145 87.2792 25.4591 90.0868 25.5823C92.8083 25.6563 95.122 26.6899 97.0279 28.681C98.9338 30.67 99.8396 33.0186 99.7392 35.7228ZM97.1652 35.5193C97.116 33.481 96.3906 31.7303 94.9868 30.2734C93.583 28.8166 91.8943 28.0892 89.9188 28.0892C87.8592 28.0892 86.1029 28.8166 84.6499 30.2734C83.1969 31.7303 82.4653 33.4912 82.453 35.5563C82.4038 37.5967 83.074 39.3865 84.4675 40.9214C85.859 42.4584 87.5415 43.268 89.5171 43.3543C91.6361 43.4529 93.4559 42.7111 94.9704 41.133C96.4828 39.5549 97.2144 37.683 97.1652 35.5193Z" fill="white"/>
    <path d="M109.543 45.8998C104.824 45.8998 102.463 43.8841 102.463 39.8505V19.2368H105.074V26.0033H109.541V28.4176H105.074V39.4067C105.074 42.2957 106.564 43.7402 109.541 43.7402V45.8998H109.543Z" fill="white"/>
    <path d="M128.926 37.124C128.926 39.6575 128.116 41.7617 126.499 43.4384C124.88 45.1171 122.839 45.9555 120.374 45.9555C117.898 45.9555 115.851 45.1151 114.232 43.4384C112.613 41.7596 111.806 39.6575 111.806 37.124V26.0425H114.417V37.4384C114.417 39.0719 115.011 40.4733 116.199 41.6425C117.388 42.8096 118.78 43.3932 120.374 43.3932C121.956 43.3932 123.339 42.8096 124.52 41.6425C125.704 40.4754 126.294 39.074 126.294 37.4384V26.0425H128.924V37.124H128.926Z" fill="white"/>
    <path d="M159.691 45.4768H157.025V33.5466C157.025 32.0466 156.592 30.7624 155.727 29.6939C154.862 28.6233 153.725 28.0891 152.315 28.0891C150.893 28.0891 149.667 28.5555 148.637 29.4905C147.606 30.4233 147.093 31.5863 147.093 32.9754V45.4768H144.372V32.9754C144.372 31.5863 143.855 30.4233 142.827 29.4905C141.796 28.5555 140.566 28.0891 139.132 28.0891C137.722 28.0891 136.599 28.6172 135.767 29.6754C134.933 30.7316 134.517 32.022 134.517 33.5466V45.4768H131.832V33.861C131.832 31.4281 132.525 29.472 133.91 27.9987C135.209 26.622 136.9 25.835 138.984 25.6377C141.806 25.4158 144.054 26.622 145.733 29.25C147.413 26.6199 149.657 25.4158 152.463 25.6377C154.571 25.8329 156.277 26.622 157.576 27.9987C158.986 29.474 159.691 31.4281 159.691 33.861V45.4768Z" fill="white"/>
    <path d="M178.153 38.2295C178.178 40.3459 177.423 42.1603 175.892 43.6788C174.36 45.1973 172.509 45.9555 170.339 45.9555C168.156 45.9555 166.308 45.2014 164.795 43.6973C163.281 42.1911 162.512 40.3192 162.488 38.0815H165.246C165.222 39.5199 165.709 40.7589 166.707 41.7966C167.707 42.8343 168.904 43.3665 170.302 43.3911C171.773 43.4178 173.036 42.9165 174.091 41.8891C175.147 40.8617 175.649 39.6185 175.599 38.1555C175.538 35.7226 173.931 34.0131 170.781 33.0309L167.986 32.1822C166.527 31.7281 165.388 30.937 164.566 29.8131C163.744 28.6891 163.328 27.3391 163.316 25.7651C163.291 23.8357 164.002 22.198 165.449 20.8521C166.896 19.5062 168.607 18.8466 170.581 18.8713C172.532 18.8959 174.185 19.6048 175.546 21.0021C176.907 22.3973 177.587 24.0658 177.587 26.0076H174.829C174.853 24.7911 174.452 23.737 173.624 22.8452C172.796 21.9535 171.782 21.4788 170.581 21.4172C169.306 21.3555 168.191 21.7706 167.234 22.6624C166.277 23.5541 165.818 24.6268 165.855 25.8802C165.904 27.9329 166.914 29.2624 168.89 29.8644L172.034 30.8589C176.063 32.1206 178.104 34.5781 178.153 38.2295Z" fill="white"/>
    <path d="M195.863 45.4769H192.48L186.19 37.8433L183.12 41.7516V45.4749H180.325V19.2002H183.01V37.6954L191.984 26.0427H195.203L187.848 35.8338L195.863 45.4769Z" fill="white"/>
    <path d="M216 26.0405L205.002 52.2618H202.208L205.151 44.8686L197.739 26.0405H200.553L206.75 41.4371L213.277 26.0405H216Z" fill="white"/>
    <path d="M17.2206 0C7.7096 0 0 7.73014 0 17.2664C0 26.8027 7.7096 34.5329 17.2206 34.5329V0Z" fill="#F0F0F2"/>
    <path d="M18.4131 34.4692V51.7336H28.5614C31.0431 51.7336 33.3958 51.1932 35.5271 50.2439C34.7729 41.4165 27.4076 34.4857 18.4131 34.4692Z" fill="#F0F0F2"/>
    <path d="M28.6761 52.9829H18.3823V68.9979C27.8933 68.9979 35.6029 61.2678 35.6029 51.7315C35.6029 51.6904 35.5967 51.6534 35.5967 51.6123C33.4572 52.4876 31.1271 52.9829 28.6761 52.9829Z" fill="#F0F0F2"/>
    <path d="M28.5614 17.3281H18.4131V33.2918C27.8708 33.3083 35.6275 40.4898 36.6358 49.7076C42.0399 46.8103 45.7184 41.1042 45.7184 34.5309C45.7184 25.0315 38.0375 17.3281 28.5614 17.3281Z" fill="#F0F0F2"/>
    <path d="M60.1953 54.7196L59.6666 55.0361C59.4699 54.7012 59.185 54.5347 58.8141 54.5347C58.5886 54.5347 58.3899 54.6046 58.2157 54.7402C58.023 54.8861 57.9267 55.069 57.9267 55.2909C57.9267 55.6053 58.1747 55.8601 58.6665 56.0532L59.0477 56.2012C59.4699 56.3676 59.7855 56.5607 59.9904 56.7806C60.2384 57.0498 60.3634 57.3909 60.3634 57.8039C60.3634 58.2827 60.2015 58.6813 59.8756 58.9936C59.5518 59.308 59.1481 59.4621 58.6645 59.4621C58.2321 59.4621 57.8652 59.3224 57.5619 59.0409C57.2586 58.7614 57.0803 58.4059 57.0229 57.9724L57.6931 57.8306C57.6869 58.1224 57.7853 58.3628 57.9841 58.5539C58.1829 58.745 58.4288 58.8395 58.7198 58.8395C59.0006 58.8395 59.2362 58.7388 59.4207 58.5354C59.6051 58.332 59.6994 58.0895 59.6994 57.8018C59.6994 57.5429 59.6031 57.3272 59.4104 57.1525C59.2793 57.0354 59.0702 56.9142 58.7833 56.7929L58.4185 56.6368C57.648 56.3121 57.2627 55.8642 57.2627 55.2888C57.2627 54.8738 57.4226 54.5347 57.7402 54.2717C58.0394 54.0313 58.4022 53.9121 58.8243 53.9121C59.4391 53.9142 59.8941 54.1813 60.1953 54.7196Z" fill="white"/>
    <path d="M63.054 54.0269V59.3508H62.3921V54.0269H63.054Z" fill="white"/>
    <path d="M68.1016 56.6675H70.2063V56.8791C70.2063 57.623 69.9706 58.2394 69.5034 58.7284C69.0341 59.2175 68.4295 59.462 67.6938 59.462C66.952 59.462 66.3187 59.1908 65.7961 58.6442C65.2715 58.0976 65.0112 57.4504 65.0112 56.7024C65.0112 55.9298 65.2776 55.2743 65.8146 54.7298C66.3494 54.1874 66.9991 53.9141 67.7655 53.9141C68.1836 53.9141 68.5832 54.0045 68.9664 54.1853C69.3476 54.3661 69.6694 54.6189 69.9276 54.9435L69.4624 55.3894C69.2698 55.1264 69.0238 54.9147 68.7246 54.7565C68.4234 54.5983 68.1139 54.5202 67.7942 54.5202C67.1979 54.5202 66.6978 54.7298 66.288 55.149C65.8801 55.5682 65.6752 56.0778 65.6752 56.6819C65.6752 57.2552 65.8761 57.7627 66.2798 58.2004C66.6835 58.638 67.1712 58.8579 67.7368 58.8579C68.1652 58.8579 68.5566 58.6997 68.9152 58.3832C69.2738 58.0689 69.4603 57.699 69.4747 57.2737H68.1016V56.6675Z" fill="white"/>
    <path d="M72.1245 59.3509V53.7783L76.1105 57.9639V54.0269H76.7704V59.5708L72.7864 55.3852V59.353H72.1245V59.3509Z" fill="white"/>
    <path d="M82.232 58.0151H79.7913L79.1888 59.3507H78.4756L81.0106 53.8027L83.5456 59.3507H82.8325L82.232 58.0151ZM81.9533 57.4089L81.0106 55.2596L80.0679 57.4089H81.9533Z" fill="white"/>
    <path d="M86.7401 54.6331V59.3489H86.0782V54.6331H84.8179V54.0249H88.0005V54.6331H86.7401Z" fill="white"/>
    <path d="M89.7549 54.0269H90.4168V57.1686C90.4168 58.2823 90.8431 58.8412 91.6977 58.8412C92.5522 58.8412 92.9805 58.2823 92.9805 57.1686V54.0269H93.6404V57.3947C93.6404 58.0008 93.4703 58.494 93.126 58.87C92.7736 59.2666 92.2981 59.4638 91.6977 59.4638C91.0972 59.4638 90.6197 59.2666 90.2693 58.87C89.927 58.494 89.7549 58.0008 89.7549 57.3947V54.0269Z" fill="white"/>
    <path d="M97.5056 57.0351L99.1819 59.3508H98.3786L96.815 57.0988H96.5403V59.3508H95.8784V54.0269H96.6818C97.3293 54.0269 97.7966 54.1111 98.0815 54.2755C98.3028 54.4029 98.4729 54.5817 98.5958 54.8077C98.7188 55.0358 98.7803 55.2823 98.7803 55.5454C98.7803 55.9378 98.6635 56.2707 98.4278 56.5501C98.1942 56.8234 97.8868 56.9878 97.5056 57.0351ZM96.5424 54.6186V56.546H96.7535C97.6921 56.546 98.1614 56.2214 98.1614 55.5721C98.1614 54.9371 97.6798 54.6186 96.7186 54.6186H96.5424Z" fill="white"/>
    <path d="M101.026 59.3508V54.0269H103.877V54.6351H101.688V56.1248H103.813V56.733H101.688V58.7447H103.877V59.3529H101.026V59.3508Z" fill="white"/>
    <path d="M110.041 56.3344L112.294 54.0269H113.161L110.771 56.4145L113.204 59.3508H112.306L110.306 56.8707L110.039 57.1234V59.3508H109.377V54.0269H110.039V56.3344H110.041Z" fill="white"/>
    <path d="M114.863 59.3509V53.7783L118.849 57.9639V54.0269H119.509V59.5708L115.525 55.3852V59.353H114.863V59.3509Z" fill="white"/>
    <path d="M124.188 53.9141C124.952 53.9141 125.606 54.1853 126.151 54.7257C126.696 55.2661 126.969 55.9216 126.969 56.688C126.969 57.473 126.702 58.1326 126.165 58.6647C125.631 59.1969 124.971 59.462 124.188 59.462C123.403 59.462 122.745 59.1969 122.208 58.6647C121.673 58.1326 121.405 57.473 121.405 56.688C121.405 55.9195 121.677 55.2661 122.222 54.7257C122.768 54.1853 123.421 53.9141 124.188 53.9141ZM124.188 58.8415C124.778 58.8415 125.28 58.6319 125.69 58.2086C126.1 57.7873 126.307 57.2798 126.307 56.688C126.307 56.0757 126.106 55.5641 125.704 55.151C125.303 54.7401 124.796 54.5326 124.188 54.5326C123.581 54.5326 123.077 54.7401 122.673 55.1552C122.268 55.5682 122.067 56.0798 122.067 56.688C122.067 57.2798 122.272 57.7873 122.684 58.2086C123.093 58.6319 123.596 58.8415 124.188 58.8415Z" fill="white"/>
    <path d="M129.053 54.0271L130.543 57.8449L132.045 53.9141L133.543 57.8346L135.029 54.0271H135.748L133.547 59.5606L132.049 55.6627L130.549 59.5709L128.342 54.0271H129.053Z" fill="white"/>
    <path d="M138.15 54.0269V58.7426H139.761V59.3508H137.488V54.0269H138.15Z" fill="white"/>
    <path d="M141.523 59.3508V54.0269H144.374V54.6351H142.185V56.1248H144.311V56.733H142.185V58.7447H144.374V59.3529H141.523V59.3508Z" fill="white"/>
    <path d="M146.458 59.3508V54.0269H147.556C148.423 54.0269 149.126 54.2447 149.661 54.6762C150.245 55.1467 150.534 55.8084 150.534 56.6611C150.534 57.5323 150.245 58.2084 149.667 58.6871C149.132 59.1289 148.421 59.3508 147.534 59.3508H146.458ZM147.12 54.633V58.7426H147.352C148.104 58.7426 148.694 58.5947 149.126 58.2967C149.622 57.9474 149.872 57.4132 149.872 56.6878C149.872 55.9625 149.624 55.4262 149.126 55.0769C148.694 54.781 148.102 54.631 147.352 54.631H147.12V54.633Z" fill="white"/>
    <path d="M155.252 56.6675H157.356V56.8791C157.356 57.623 157.121 58.2394 156.653 58.7284C156.184 59.2175 155.579 59.462 154.844 59.462C154.102 59.462 153.469 59.1908 152.946 58.6442C152.421 58.0976 152.161 57.4504 152.161 56.7024C152.161 55.9298 152.428 55.2743 152.964 54.7298C153.499 54.1874 154.149 53.9141 154.915 53.9141C155.334 53.9141 155.733 54.0045 156.116 54.1853C156.498 54.3661 156.819 54.6189 157.077 54.9435L156.612 55.3894C156.42 55.1264 156.174 54.9147 155.875 54.7565C155.573 54.5983 155.264 54.5202 154.944 54.5202C154.348 54.5202 153.848 54.7298 153.438 55.149C153.03 55.5682 152.825 56.0778 152.825 56.6819C152.825 57.2552 153.026 57.7627 153.43 58.2004C153.833 58.638 154.321 58.8579 154.887 58.8579C155.315 58.8579 155.706 58.6997 156.065 58.3832C156.424 58.0689 156.61 57.699 156.625 57.2737H155.252V56.6675Z" fill="white"/>
    <path d="M159.338 59.3508V54.0269H162.189V54.6351H160V56.1248H162.125V56.733H160V58.7447H162.189V59.3529H159.338V59.3508Z" fill="white"/>
    <path d="M170.097 53.9141C170.861 53.9141 171.515 54.1853 172.06 54.7257C172.605 55.2661 172.878 55.9216 172.878 56.688C172.878 57.473 172.611 58.1326 172.075 58.6647C171.54 59.1969 170.88 59.462 170.097 59.462C169.312 59.462 168.654 59.1969 168.117 58.6647C167.582 58.1326 167.314 57.473 167.314 56.688C167.314 55.9195 167.587 55.2661 168.132 54.7257C168.677 54.1853 169.331 53.9141 170.097 53.9141ZM170.097 58.8415C170.687 58.8415 171.189 58.6319 171.599 58.2086C172.009 57.7873 172.216 57.2798 172.216 56.688C172.216 56.0757 172.015 55.5641 171.613 55.151C171.212 54.7401 170.706 54.5326 170.097 54.5326C169.49 54.5326 168.986 54.7401 168.583 55.1552C168.177 55.5682 167.976 56.0798 167.976 56.688C167.976 57.2798 168.181 57.7873 168.593 58.2086C169.003 58.6319 169.505 58.8415 170.097 58.8415Z" fill="white"/>
    <path d="M177.403 54.6331H175.495V56.129H177.339V56.7372H175.495V59.3489H174.833V54.0249H177.403V54.6331Z" fill="white"/>
    <path d="M184.045 57.0351L182.313 54.0269H183.077L184.377 56.2974L185.676 54.0269H186.44L184.709 57.0351V59.3508H184.049V57.0351H184.045Z" fill="white"/>
    <path d="M190.629 53.9141C191.394 53.9141 192.047 54.1853 192.592 54.7257C193.138 55.2661 193.41 55.9216 193.41 56.688C193.41 57.473 193.144 58.1326 192.607 58.6647C192.072 59.1969 191.412 59.462 190.629 59.462C189.844 59.462 189.186 59.1969 188.65 58.6647C188.115 58.1326 187.846 57.473 187.846 56.688C187.846 55.9195 188.119 55.2661 188.664 54.7257C189.209 54.1853 189.863 53.9141 190.629 53.9141ZM190.629 58.8415C191.219 58.8415 191.721 58.6319 192.131 58.2086C192.541 57.7873 192.748 57.2798 192.748 56.688C192.748 56.0757 192.547 55.5641 192.146 55.151C191.744 54.7401 191.238 54.5326 190.629 54.5326C190.023 54.5326 189.518 54.7401 189.115 55.1552C188.709 55.5682 188.508 56.0798 188.508 56.688C188.508 57.2798 188.713 57.7873 189.125 58.2086C189.535 58.6319 190.037 58.8415 190.629 58.8415Z" fill="white"/>
    <path d="M195.283 54.0269H195.945V57.1686C195.945 58.2823 196.371 58.8412 197.226 58.8412C198.081 58.8412 198.509 58.2823 198.509 57.1686V54.0269H199.169V57.3947C199.169 58.0008 198.999 58.494 198.654 58.87C198.302 59.2666 197.826 59.4638 197.226 59.4638C196.626 59.4638 196.148 59.2666 195.798 58.87C195.455 58.494 195.283 58.0008 195.283 57.3947V54.0269Z" fill="white"/>
    <path d="M202.837 54.6331V59.3489H202.175V54.6331H200.915V54.0249H204.098V54.6331H202.837Z" fill="white"/>
    <path d="M206.549 56.1741H209.078V54.0269H209.737V59.3508H209.078V56.7947H206.549V59.3508H205.887V54.0269H206.549V56.1741Z" fill="white"/>
    </g>
    <defs>
    <clipPath id="clip0_1119_323">
    <rect width="216" height="69" fill="white"/>
    </clipPath>
    </defs>
    </svg>
    