<svg width="21" height="21" viewBox="0 0 21 21" fill="none" xmlns="http://www.w3.org/2000/svg">
    <g clip-path="url(#clip0_768_67)">
    <path d="M10.4987 0C16.3966 0.0406083 21.0037 4.75393 21 10.5055C20.9964 16.4039 16.2165 21.0037 10.495 21C4.67369 20.9963 -0.0174933 16.2627 4.90385e-05 10.4779C0.0166681 4.74286 4.63399 0.032302 10.4987 0ZM5.87673 8.75108C5.81487 8.87659 5.7844 8.97627 5.72438 9.05472C5.05224 9.92964 4.37363 10.7981 3.70332 11.6749C3.50944 11.9287 3.30724 12.1843 3.1669 12.4686C2.94531 12.918 3.16967 13.3167 3.66362 13.3961C3.89814 13.4339 4.14004 13.4423 4.37824 13.4432C5.34584 13.4459 6.31344 13.4496 7.28011 13.4349C7.67435 13.4293 7.88578 13.1848 7.87378 12.8101C7.8627 12.4584 7.62172 12.2305 7.24318 12.2277C6.54241 12.2212 5.84072 12.2212 5.13995 12.2175C5.07347 12.2175 5.00607 12.2175 4.90821 12.2175C4.95806 12.1409 4.98114 12.0994 5.00977 12.0616C5.37908 11.578 5.75208 11.0971 6.11862 10.6117C6.61258 9.95733 7.10561 9.30114 7.59218 8.64125C7.75375 8.42252 7.80823 8.17887 7.67158 7.9223C7.53771 7.67219 7.31797 7.56144 7.0419 7.56052C6.02537 7.55775 5.00884 7.55221 3.99231 7.56329C3.81412 7.56513 3.62669 7.62051 3.4605 7.69065C3.26107 7.77371 3.18813 7.95829 3.19183 8.17149C3.19552 8.38191 3.286 8.55173 3.47804 8.62464C3.65162 8.69109 3.84366 8.73724 4.02924 8.74277C4.5509 8.75939 5.07255 8.75108 5.5942 8.75292C5.67545 8.75108 5.75485 8.75108 5.87673 8.75108ZM11.8882 11.3325C11.8873 11.3325 11.8854 11.3325 11.8845 11.3325C11.8845 10.8332 11.8891 10.333 11.8827 9.83366C11.8799 9.60662 11.758 9.4405 11.5521 9.35097C11.3241 9.25222 11.0877 9.23099 10.9031 9.43127C10.7673 9.57893 10.6501 9.57801 10.494 9.47372C9.89115 9.06856 9.02419 9.13778 8.45268 9.6943C7.83777 10.2933 7.65312 11.0362 7.82762 11.8622C7.96149 12.4935 8.30772 12.9863 8.89585 13.2835C9.43689 13.5567 9.96501 13.5069 10.4811 13.2069C10.7092 13.0749 10.7129 13.0777 10.9031 13.2466C11.0489 13.3758 11.2151 13.4146 11.4026 13.373C11.6897 13.3084 11.8762 13.1109 11.8836 12.8147C11.8965 12.3209 11.8882 11.8262 11.8882 11.3325ZM17.9117 11.4654C17.9071 10.1844 17.1878 9.35466 16.0688 9.23284C15.0661 9.12394 14.1752 9.68784 13.8908 10.6126C13.6027 11.5503 13.8705 12.535 14.6008 13.0611C15.3025 13.5668 16.0725 13.6056 16.8342 13.2161C17.5765 12.8368 17.884 12.1705 17.9117 11.4654ZM12.2437 10.4557C12.2437 10.7704 12.2437 11.0861 12.2437 11.4008C12.2437 11.8521 12.239 12.3025 12.2464 12.7538C12.252 13.1266 12.4643 13.3583 12.7986 13.3777C13.1549 13.398 13.3802 13.2041 13.4328 12.8267C13.4439 12.7464 13.4467 12.6642 13.4467 12.583C13.4476 11.1645 13.4485 9.7469 13.4476 8.32838C13.4476 8.23055 13.4485 8.1318 13.4328 8.03582C13.3848 7.73495 13.203 7.57528 12.8909 7.54667C12.5927 7.51991 12.3858 7.6482 12.2917 7.93522C12.2584 8.03582 12.2455 8.14749 12.2446 8.25455C12.2418 8.98827 12.2437 9.72198 12.2437 10.4557Z" fill="#666666"/>
    <path d="M8.97266 11.3195C9.02805 11.1359 9.06314 10.9365 9.14623 10.7593C9.28011 10.4732 9.52939 10.3366 9.84331 10.3339C10.148 10.3311 10.3816 10.476 10.5201 10.74C10.7315 11.1423 10.7269 11.5586 10.5099 11.9564C10.3483 12.2526 10.0649 12.3403 9.74636 12.3191C9.44168 12.2988 9.22563 12.1299 9.11115 11.8558C9.0419 11.6952 9.02067 11.5143 8.97266 11.3195Z" fill="#666666"/>
    <path d="M15.0059 11.3426C15.0123 11.0547 15.0816 10.7852 15.2773 10.5748C15.6106 10.2139 16.1932 10.2647 16.485 10.6661C16.7278 11.0002 16.7453 11.601 16.5228 11.9499C16.3391 12.2369 16.0187 12.3791 15.6808 12.3126C15.3318 12.2434 15.1434 12.0062 15.0548 11.6795C15.0243 11.5706 15.0206 11.4552 15.0059 11.3426Z" fill="#666666"/>
    </g>
    <defs>
    <clipPath id="clip0_768_67">
    <rect width="21" height="21" fill="white"/>
    </clipPath>
    </defs>
    </svg>
    