<svg width="21" height="21" viewBox="0 0 21 21" fill="none" xmlns="http://www.w3.org/2000/svg">
    <g clip-path="url(#clip0_99_31)">
    <path d="M10.4984 0C16.3963 0.0406083 21.0035 4.75393 20.9998 10.5055C20.9961 16.4039 16.2163 21.0037 10.4947 21C4.67342 20.9963 -0.0177679 16.2627 -0.00022562 10.4779C0.0163934 4.74286 4.63372 0.032302 10.4984 0ZM5.87645 8.75108C5.81459 8.87659 5.78412 8.97627 5.72411 9.05472C5.05196 9.92964 4.37335 10.7981 3.70305 11.6749C3.50916 11.9287 3.30696 12.1843 3.16662 12.4686C2.94504 12.918 3.16939 13.3167 3.66335 13.3961C3.89786 13.4339 4.13976 13.4423 4.37797 13.4432C5.34556 13.4459 6.31316 13.4496 7.27984 13.4349C7.67408 13.4293 7.88551 13.1848 7.87351 12.8101C7.86243 12.4584 7.62145 12.2305 7.24291 12.2277C6.54214 12.2212 5.84044 12.2212 5.13967 12.2175C5.0732 12.2175 5.0058 12.2175 4.90793 12.2175C4.95779 12.1409 4.98087 12.0994 5.00949 12.0616C5.3788 11.578 5.75181 11.0971 6.11835 10.6117C6.61231 9.95733 7.10534 9.30114 7.59191 8.64125C7.75348 8.42252 7.80795 8.17887 7.67131 7.9223C7.53743 7.67219 7.31769 7.56144 7.04163 7.56052C6.0251 7.55775 5.00857 7.55221 3.99204 7.56329C3.81384 7.56513 3.62642 7.62051 3.46023 7.69065C3.2608 7.77371 3.18786 7.95829 3.19155 8.17149C3.19525 8.38191 3.28573 8.55173 3.47777 8.62464C3.65135 8.69109 3.84339 8.73724 4.02897 8.74277C4.55062 8.75939 5.07227 8.75108 5.59393 8.75292C5.67518 8.75108 5.75458 8.75108 5.87645 8.75108ZM11.8879 11.3325C11.887 11.3325 11.8852 11.3325 11.8842 11.3325C11.8842 10.8332 11.8888 10.333 11.8824 9.83366C11.8796 9.60662 11.7577 9.4405 11.5519 9.35097C11.3238 9.25222 11.0874 9.23099 10.9028 9.43127C10.7671 9.57893 10.6498 9.57801 10.4938 9.47372C9.89087 9.06856 9.02391 9.13778 8.4524 9.6943C7.8375 10.2933 7.65284 11.0362 7.82734 11.8622C7.96122 12.4935 8.30745 12.9863 8.89558 13.2835C9.43662 13.5567 9.96473 13.5069 10.4808 13.2069C10.7089 13.0749 10.7126 13.0777 10.9028 13.2466C11.0487 13.3758 11.2149 13.4146 11.4023 13.373C11.6894 13.3084 11.8759 13.1109 11.8833 12.8147C11.8962 12.3209 11.8879 11.8262 11.8879 11.3325ZM17.9114 11.4654C17.9068 10.1844 17.1876 9.35466 16.0685 9.23284C15.0659 9.12394 14.1749 9.68784 13.8905 10.6126C13.6025 11.5503 13.8702 12.535 14.6005 13.0611C15.3022 13.5668 16.0722 13.6056 16.8339 13.2161C17.5763 12.8368 17.8837 12.1705 17.9114 11.4654ZM12.2434 10.4557C12.2434 10.7704 12.2434 11.0861 12.2434 11.4008C12.2434 11.8521 12.2388 12.3025 12.2462 12.7538C12.2517 13.1266 12.4641 13.3583 12.7983 13.3777C13.1547 13.398 13.3799 13.2041 13.4326 12.8267C13.4437 12.7464 13.4464 12.6642 13.4464 12.583C13.4473 11.1645 13.4483 9.7469 13.4473 8.32838C13.4473 8.23055 13.4483 8.1318 13.4326 8.03582C13.3846 7.73495 13.2027 7.57528 12.8906 7.54667C12.5924 7.51991 12.3856 7.6482 12.2914 7.93522C12.2582 8.03582 12.2452 8.14749 12.2443 8.25455C12.2415 8.98827 12.2434 9.72198 12.2434 10.4557Z" fill="#666666"/>
    <path d="M8.97336 11.3197C9.02875 11.136 9.06384 10.9367 9.14693 10.7595C9.28081 10.4734 9.5301 10.3368 9.84401 10.334C10.1487 10.3313 10.3823 10.4762 10.5208 10.7401C10.7322 11.1425 10.7276 11.5587 10.5106 11.9565C10.349 12.2528 10.0656 12.3404 9.74707 12.3192C9.44238 12.2989 9.22634 12.13 9.11185 11.8559C9.0426 11.6953 9.02137 11.5144 8.97336 11.3197Z" fill="#666666"/>
    <path d="M15.0061 11.3426C15.0125 11.0546 15.0818 10.7851 15.2775 10.5747C15.6108 10.2138 16.1934 10.2646 16.4852 10.6661C16.728 11.0002 16.7455 11.601 16.523 11.9498C16.3393 12.2369 16.0189 12.379 15.681 12.3125C15.332 12.2433 15.1436 12.0061 15.055 11.6794C15.0245 11.5705 15.0208 11.4552 15.0061 11.3426Z" fill="#666666"/>
    </g>
    <defs>
    <clipPath id="clip0_99_31">
    <rect width="21" height="21" fill="white"/>
    </clipPath>
    </defs>
    </svg>
    