<svg width="21" height="21" viewBox="0 0 21 21" fill="none" xmlns="http://www.w3.org/2000/svg">
    <g clip-path="url(#clip0_1115_159)">
    <path d="M10.4982 0C16.3961 0.0406083 21.0033 4.75393 20.9996 10.5055C20.9959 16.4039 16.216 21.0037 10.4945 21C4.6732 20.9963 -0.0179816 16.2627 -0.000439243 10.4779C0.0161798 4.74286 4.6335 0.032302 10.4982 0ZM5.87624 8.75108C5.81438 8.87659 5.78391 8.97627 5.7239 9.05472C5.05175 9.92964 4.37314 10.7981 3.70284 11.6749C3.50895 11.9287 3.30675 12.1843 3.16641 12.4686C2.94482 12.918 3.16918 13.3167 3.66314 13.3961C3.89765 13.4339 4.13955 13.4423 4.37775 13.4432C5.34535 13.4459 6.31295 13.4496 7.27962 13.4349C7.67386 13.4293 7.88529 13.1848 7.87329 12.8101C7.86221 12.4584 7.62124 12.2305 7.24269 12.2277C6.54192 12.2212 5.84023 12.2212 5.13946 12.2175C5.07298 12.2175 5.00558 12.2175 4.90772 12.2175C4.95757 12.1409 4.98066 12.0994 5.00928 12.0616C5.37859 11.578 5.75159 11.0971 6.11814 10.6117C6.61209 9.95733 7.10512 9.30114 7.59169 8.64125C7.75327 8.42252 7.80774 8.17887 7.67109 7.9223C7.53722 7.67219 7.31748 7.56144 7.04142 7.56052C6.02489 7.55775 5.00835 7.55221 3.99182 7.56329C3.81363 7.56513 3.6262 7.62051 3.46001 7.69065C3.26059 7.77371 3.18765 7.95829 3.19134 8.17149C3.19503 8.38191 3.28551 8.55173 3.47756 8.62464C3.65113 8.69109 3.84317 8.73724 4.02875 8.74277C4.55041 8.75939 5.07206 8.75108 5.59371 8.75292C5.67496 8.75108 5.75436 8.75108 5.87624 8.75108ZM11.8877 11.3325C11.8868 11.3325 11.8849 11.3325 11.884 11.3325C11.884 10.8332 11.8886 10.333 11.8822 9.83366C11.8794 9.60662 11.7575 9.4405 11.5516 9.35097C11.3236 9.25222 11.0872 9.23099 10.9026 9.43127C10.7669 9.57893 10.6496 9.57801 10.4936 9.47372C9.89066 9.06856 9.0237 9.13778 8.45219 9.6943C7.83728 10.2933 7.65263 11.0362 7.82713 11.8622C7.961 12.4935 8.30723 12.9863 8.89536 13.2835C9.43641 13.5567 9.96452 13.5069 10.4806 13.2069C10.7087 13.0749 10.7124 13.0777 10.9026 13.2466C11.0485 13.3758 11.2146 13.4146 11.4021 13.373C11.6892 13.3084 11.8757 13.1109 11.8831 12.8147C11.896 12.3209 11.8877 11.8262 11.8877 11.3325ZM17.9112 11.4654C17.9066 10.1844 17.1873 9.35466 16.0683 9.23284C15.0656 9.12394 14.1747 9.68784 13.8903 10.6126C13.6022 11.5503 13.87 12.535 14.6003 13.0611C15.302 13.5668 16.072 13.6056 16.8337 13.2161C17.576 12.8368 17.8835 12.1705 17.9112 11.4654ZM12.2432 10.4557C12.2432 10.7704 12.2432 11.0861 12.2432 11.4008C12.2432 11.8521 12.2386 12.3025 12.2459 12.7538C12.2515 13.1266 12.4638 13.3583 12.7981 13.3777C13.1545 13.398 13.3797 13.2041 13.4324 12.8267C13.4434 12.7464 13.4462 12.6642 13.4462 12.583C13.4471 11.1645 13.4481 9.7469 13.4471 8.32838C13.4471 8.23055 13.4481 8.1318 13.4324 8.03582C13.3843 7.73495 13.2025 7.57528 12.8904 7.54667C12.5922 7.51991 12.3854 7.6482 12.2912 7.93522C12.2579 8.03582 12.245 8.14749 12.2441 8.25455C12.2413 8.98827 12.2432 9.72198 12.2432 10.4557Z" fill="white"/>
    <path d="M8.97314 11.3197C9.02854 11.136 9.06363 10.9367 9.14672 10.7595C9.2806 10.4734 9.52988 10.3368 9.8438 10.334C10.1485 10.3313 10.3821 10.4762 10.5206 10.7401C10.732 11.1425 10.7274 11.5587 10.5104 11.9565C10.3488 12.2528 10.0654 12.3404 9.74685 12.3192C9.44217 12.2989 9.22612 12.13 9.11164 11.8559C9.04239 11.6953 9.02116 11.5144 8.97314 11.3197Z" fill="#666666"/>
    <path d="M15.0059 11.3426C15.0123 11.0546 15.0816 10.7851 15.2773 10.5747C15.6106 10.2138 16.1932 10.2646 16.485 10.6661C16.7278 11.0002 16.7453 11.601 16.5228 11.9498C16.3391 12.2369 16.0187 12.379 15.6808 12.3125C15.3318 12.2433 15.1434 12.0061 15.0548 11.6794C15.0243 11.5705 15.0206 11.4552 15.0059 11.3426Z" fill="#666666"/>
    </g>
    <defs>
    <clipPath id="clip0_1115_159">
    <rect width="21" height="21" fill="white"/>
    </clipPath>
    </defs>
    </svg>
    